<mxfile host="app.diagrams.net" modified="2023-03-21T13:58:31.546Z" agent="5.0 (Windows NT 10.0; Win64; x64) AppleWebKit/537.36 (KHTML, like Gecko) Chrome/111.0.0.0 Safari/537.36" etag="5h2VzRFe5M_p8JI94kF9" version="21.0.8" type="github">
  <diagram name="페이지-1" id="qE8Q69KzwMaXqszVzvKh">
    <mxGraphModel dx="1235" dy="674" grid="1" gridSize="10" guides="1" tooltips="1" connect="1" arrows="1" fold="1" page="1" pageScale="1" pageWidth="3300" pageHeight="4681" math="0" shadow="0">
      <root>
        <mxCell id="0" />
        <mxCell id="1" parent="0" />
        <mxCell id="jkfI4BHD5sDQ433wXTqG-16" style="edgeStyle=orthogonalEdgeStyle;rounded=0;orthogonalLoop=1;jettySize=auto;html=1;exitX=0.5;exitY=1;exitDx=0;exitDy=0;entryX=0.5;entryY=0;entryDx=0;entryDy=0;" parent="1" source="jkfI4BHD5sDQ433wXTqG-1" target="jkfI4BHD5sDQ433wXTqG-6" edge="1">
          <mxGeometry relative="1" as="geometry" />
        </mxCell>
        <mxCell id="jkfI4BHD5sDQ433wXTqG-1" value="사물 인식 &amp;amp; 사각형" style="rounded=1;whiteSpace=wrap;html=1;" parent="1" vertex="1">
          <mxGeometry x="320" y="280" width="120" height="60" as="geometry" />
        </mxCell>
        <mxCell id="jkfI4BHD5sDQ433wXTqG-5" value="30 x 30 cm 드론으로 한다고 생각.&lt;br&gt;&amp;nbsp;드론 살지도 정해야함" style="text;html=1;align=center;verticalAlign=middle;resizable=0;points=[];autosize=1;strokeColor=none;fillColor=none;" parent="1" vertex="1">
          <mxGeometry x="70" y="140" width="200" height="40" as="geometry" />
        </mxCell>
        <mxCell id="jkfI4BHD5sDQ433wXTqG-14" style="edgeStyle=orthogonalEdgeStyle;rounded=0;orthogonalLoop=1;jettySize=auto;html=1;exitX=0.5;exitY=1;exitDx=0;exitDy=0;entryX=0.5;entryY=0;entryDx=0;entryDy=0;" parent="1" source="jkfI4BHD5sDQ433wXTqG-6" target="jkfI4BHD5sDQ433wXTqG-12" edge="1">
          <mxGeometry relative="1" as="geometry" />
        </mxCell>
        <mxCell id="jkfI4BHD5sDQ433wXTqG-21" style="edgeStyle=orthogonalEdgeStyle;rounded=0;orthogonalLoop=1;jettySize=auto;html=1;" parent="1" source="jkfI4BHD5sDQ433wXTqG-6" target="jkfI4BHD5sDQ433wXTqG-8" edge="1">
          <mxGeometry relative="1" as="geometry" />
        </mxCell>
        <mxCell id="jkfI4BHD5sDQ433wXTqG-6" value="사각형의 크기가 &lt;br&gt;지정한 값보다 큰가?" style="rhombus;whiteSpace=wrap;html=1;" parent="1" vertex="1">
          <mxGeometry x="260" y="380" width="240" height="80" as="geometry" />
        </mxCell>
        <mxCell id="jkfI4BHD5sDQ433wXTqG-26" style="edgeStyle=orthogonalEdgeStyle;rounded=0;orthogonalLoop=1;jettySize=auto;html=1;entryX=0;entryY=0.5;entryDx=0;entryDy=0;" parent="1" source="jkfI4BHD5sDQ433wXTqG-7" target="jkfI4BHD5sDQ433wXTqG-25" edge="1">
          <mxGeometry relative="1" as="geometry">
            <Array as="points">
              <mxPoint x="640" y="780" />
              <mxPoint x="160" y="780" />
              <mxPoint x="160" y="210" />
            </Array>
          </mxGeometry>
        </mxCell>
        <mxCell id="jkfI4BHD5sDQ433wXTqG-7" value="카메라 짐벌제어" style="rounded=1;whiteSpace=wrap;html=1;" parent="1" vertex="1">
          <mxGeometry x="580" y="650" width="120" height="60" as="geometry" />
        </mxCell>
        <mxCell id="jkfI4BHD5sDQ433wXTqG-22" style="edgeStyle=orthogonalEdgeStyle;rounded=0;orthogonalLoop=1;jettySize=auto;html=1;entryX=0.5;entryY=0;entryDx=0;entryDy=0;" parent="1" source="jkfI4BHD5sDQ433wXTqG-8" target="jkfI4BHD5sDQ433wXTqG-7" edge="1">
          <mxGeometry relative="1" as="geometry">
            <mxPoint x="640" y="600" as="targetPoint" />
          </mxGeometry>
        </mxCell>
        <mxCell id="jkfI4BHD5sDQ433wXTqG-8" value="사각형 크기가 지정한 값이 될 때 까지 줌인" style="rounded=1;whiteSpace=wrap;html=1;" parent="1" vertex="1">
          <mxGeometry x="580" y="390" width="120" height="60" as="geometry" />
        </mxCell>
        <mxCell id="jkfI4BHD5sDQ433wXTqG-13" style="edgeStyle=orthogonalEdgeStyle;rounded=0;orthogonalLoop=1;jettySize=auto;html=1;" parent="1" source="jkfI4BHD5sDQ433wXTqG-12" target="jkfI4BHD5sDQ433wXTqG-7" edge="1">
          <mxGeometry relative="1" as="geometry">
            <Array as="points">
              <mxPoint x="640" y="540" />
            </Array>
          </mxGeometry>
        </mxCell>
        <mxCell id="jkfI4BHD5sDQ433wXTqG-19" style="edgeStyle=orthogonalEdgeStyle;rounded=0;orthogonalLoop=1;jettySize=auto;html=1;exitX=0.5;exitY=1;exitDx=0;exitDy=0;" parent="1" source="jkfI4BHD5sDQ433wXTqG-12" target="jkfI4BHD5sDQ433wXTqG-18" edge="1">
          <mxGeometry relative="1" as="geometry" />
        </mxCell>
        <mxCell id="jkfI4BHD5sDQ433wXTqG-12" value="줌 아웃 할 수 있는가?" style="rhombus;whiteSpace=wrap;html=1;" parent="1" vertex="1">
          <mxGeometry x="260" y="500" width="240" height="80" as="geometry" />
        </mxCell>
        <mxCell id="jkfI4BHD5sDQ433wXTqG-20" style="edgeStyle=orthogonalEdgeStyle;rounded=0;orthogonalLoop=1;jettySize=auto;html=1;" parent="1" source="jkfI4BHD5sDQ433wXTqG-18" target="jkfI4BHD5sDQ433wXTqG-7" edge="1">
          <mxGeometry relative="1" as="geometry" />
        </mxCell>
        <mxCell id="jkfI4BHD5sDQ433wXTqG-18" value="사각형 크기가 지정한 값이 될 때 까지 줌아웃" style="rounded=1;whiteSpace=wrap;html=1;" parent="1" vertex="1">
          <mxGeometry x="320" y="650" width="120" height="60" as="geometry" />
        </mxCell>
        <mxCell id="jkfI4BHD5sDQ433wXTqG-27" style="edgeStyle=orthogonalEdgeStyle;rounded=0;orthogonalLoop=1;jettySize=auto;html=1;entryX=0.5;entryY=0;entryDx=0;entryDy=0;" parent="1" source="jkfI4BHD5sDQ433wXTqG-25" target="jkfI4BHD5sDQ433wXTqG-1" edge="1">
          <mxGeometry relative="1" as="geometry" />
        </mxCell>
        <mxCell id="jkfI4BHD5sDQ433wXTqG-25" value="시작" style="rounded=0;whiteSpace=wrap;html=1;" parent="1" vertex="1">
          <mxGeometry x="320" y="180" width="120" height="60" as="geometry" />
        </mxCell>
        <mxCell id="H93AGvc3Vheq3xLvHCYU-2" style="edgeStyle=orthogonalEdgeStyle;rounded=0;orthogonalLoop=1;jettySize=auto;html=1;entryX=0.5;entryY=0;entryDx=0;entryDy=0;" edge="1" parent="1" source="jkfI4BHD5sDQ433wXTqG-29" target="jkfI4BHD5sDQ433wXTqG-34">
          <mxGeometry relative="1" as="geometry" />
        </mxCell>
        <mxCell id="jkfI4BHD5sDQ433wXTqG-29" value="사물 인식 &amp;amp; 사각형" style="rounded=1;whiteSpace=wrap;html=1;" parent="1" vertex="1">
          <mxGeometry x="919.94" y="280" width="120" height="60" as="geometry" />
        </mxCell>
        <mxCell id="H93AGvc3Vheq3xLvHCYU-3" style="edgeStyle=orthogonalEdgeStyle;rounded=0;orthogonalLoop=1;jettySize=auto;html=1;exitX=0.5;exitY=1;exitDx=0;exitDy=0;entryX=0;entryY=0.5;entryDx=0;entryDy=0;" edge="1" parent="1" source="jkfI4BHD5sDQ433wXTqG-34" target="jkfI4BHD5sDQ433wXTqG-43">
          <mxGeometry relative="1" as="geometry">
            <Array as="points">
              <mxPoint x="980" y="480" />
              <mxPoint x="850" y="480" />
              <mxPoint x="850" y="210" />
            </Array>
          </mxGeometry>
        </mxCell>
        <mxCell id="jkfI4BHD5sDQ433wXTqG-34" value="카메라 짐벌제어" style="rounded=1;whiteSpace=wrap;html=1;" parent="1" vertex="1">
          <mxGeometry x="919.94" y="380" width="120" height="60" as="geometry" />
        </mxCell>
        <mxCell id="jkfI4BHD5sDQ433wXTqG-42" style="edgeStyle=orthogonalEdgeStyle;rounded=0;orthogonalLoop=1;jettySize=auto;html=1;entryX=0.5;entryY=0;entryDx=0;entryDy=0;" parent="1" source="jkfI4BHD5sDQ433wXTqG-43" target="jkfI4BHD5sDQ433wXTqG-29" edge="1">
          <mxGeometry relative="1" as="geometry" />
        </mxCell>
        <mxCell id="jkfI4BHD5sDQ433wXTqG-43" value="시작" style="rounded=0;whiteSpace=wrap;html=1;" parent="1" vertex="1">
          <mxGeometry x="919.94" y="180" width="120" height="60" as="geometry" />
        </mxCell>
      </root>
    </mxGraphModel>
  </diagram>
</mxfile>
